#!OML:ASF F:\VICON\USERDATA\INSTALL\rory3\rory3.ASF
:FULLY-SPECIFIED
:DEGREES
1972
root -1.06525 17.1298 -2.09911 369.212 -67.561 3.85196
lowerback 17.1438 -3.04528 0.646264
upperback 9.17364 -4.41591 8.25452
thorax 0.94406 -2.71236 9.21776
lowerneck -6.66901 -5.22657 -12.0194
upperneck 34.8337 -8.67377 5.4758
head 13.6833 -5.00518 3.03002
rclavicle 1.74931e-014 -4.45278e-014
rhumerus -38.5189 4.01641 -81.2251
rradius 39.5545
rwrist 35.5012
rhand -60.3382 32.711
rfingers 7.12502
rthumb -32.4738 5.60127
lclavicle 1.74931e-014 -4.45278e-014
lhumerus -38.5068 -26.2674 106.166
lradius 37.6596
lwrist -10.6362
lhand -20.9108 16.7255
lfingers 7.12502
lthumb 5.46048 46.6351
rfemur -51.1214 -11.2848 21.6236
rtibia 51.0793
rfoot 3.01975 3.27049
rtoes 22.1961
lfemur -54.9642 2.4197 -10.5159
ltibia 62.0438
lfoot 23.0813 -7.6922
ltoes -23.0305
1973
root -1.02153 17.0897 -2.13475 368.828 -67.4667 3.75741
lowerback 17.2771 -3.0203 0.536955
upperback 9.29777 -4.40594 8.12558
thorax 1.0038 -2.71332 9.1415
lowerneck -6.79938 -5.1683 -11.9989
upperneck 34.9621 -8.58754 5.48592
head 13.7584 -4.96529 3.04106
rclavicle 4.45278e-014 1.27222e-014
rhumerus -38.716 4.18236 -81.7179
rradius 39.827
rwrist 36.9985
rhand -62.6584 30.8608
rfingers 7.12502
rthumb -34.6788 4.23036
lclavicle 4.45278e-014 1.27222e-014
lhumerus -39.0398 -26.5443 106.867
lradius 37.7609
lwrist -10.1507
lhand -21.506 16.6507
lfingers 7.12502
lthumb 4.88578 46.5744
rfemur -51.3772 -11.07 21.4889
rtibia 52.0707
rfoot 3.36245 2.95645
rtoes 22.7037
lfemur -55.0095 2.4609 -10.4655
ltibia 62.4779
lfoot 23.344 -8.10351
ltoes -23.8909
1974
root -0.977112 17.0467 -2.17082 369.027 -67.2844 3.1343
lowerback 17.3283 -3.03862 0.664064
upperback 9.3472 -4.41482 8.07104
thorax 1.01689 -2.71296 9.00966
lowerneck -6.7897 -5.07927 -12.1044
upperneck 35.0451 -8.47689 5.58158
head 13.7917 -4.92467 3.11581
rclavicle -7.79236e-014 1.19271e-013
rhumerus -39.1338 5.05331 -82.5223
rradius 40.3313
rwrist 37.9047
rhand -66.0479 23.2796
rfingers 7.12502
rthumb -37.8882 -2.54998
lclavicle -7.79236e-014 1.19271e-013
lhumerus -39.6521 -26.8639 107.661
lradius 37.9416
lwrist -9.16514
lhand -22.133 16.873
lfingers 7.12502
lthumb 4.28038 46.8097
rfemur -51.7243 -10.8753 21.5691
rtibia 53.0902
rfoot 3.76087 2.54725
rtoes 24.0342
lfemur -55.1886 2.56805 -10.1951
ltibia 62.8903
lfoot 23.7527 -8.37751
ltoes -24.0653
1975
root -0.935952 17.0092 -2.20103 370.16 -67.0805 1.65207
lowerback 17.057 -3.10906 1.27109
upperback 9.42738 -4.44703 8.02992
thorax 1.19798 -2.70825 8.58849
lowerneck -6.77115 -4.97802 -12.033
upperneck 35.0417 -8.35471 5.63373
head 13.7685 -4.85912 3.14369
rclavicle 4.92986e-014 -2.38542e-014
rhumerus -39.4098 5.60798 -83.1985
rradius 40.7881
rwrist 38.1471
rhand -66.4738 22.6614
rfingers 7.12502
rthumb -38.2904 -3.05826
lclavicle 4.92986e-014 -2.38542e-014
lhumerus -40.1618 -27.2281 108.339
lradius 38.1185
lwrist -7.86081
lhand -23.0747 17.9857
lfingers 7.12502
lthumb 3.37096 47.9388
rfemur -52.1522 -10.7022 22.0426
rtibia 54.0634
rfoot 4.14151 2.11657
rtoes 25.4184
lfemur -55.5245 2.77694 -9.5578
ltibia 63.3281
lfoot 24.1993 -8.48979
ltoes -23.5124
1976
root -0.887627 16.9617 -2.24208 368.245 -67.0454 2.99065
lowerback 17.3996 -3.08 0.584124
upperback 9.56403 -4.49548 7.69683
thorax 1.19524 -2.75151 8.64622
lowerneck -6.80974 -4.86428 -11.7379
upperneck 35.0488 -8.1727 5.45285
head 13.731 -4.76551 3.04535
rclavicle 3.97569e-014 -7.15625e-014
rhumerus -39.543 5.88267 -83.7804
rradius 41.1956
rwrist 37.8587
rhand -65.3649 27.766
rfingers 7.12502
rthumb -37.2428 1.76473
lclavicle 3.97569e-014 -7.15625e-014
lhumerus -40.5366 -27.411 108.771
lradius 38.2082
lwrist -6.709
lhand -24.0659 19.0528
lfingers 7.12502
lthumb 2.41369 49.0189
rfemur -52.2922 -10.6032 21.2931
rtibia 55.0657
rfoot 4.4781 1.70303
rtoes 25.7859
lfemur -55.3522 2.78067 -10.0896
ltibia 63.7296
lfoot 24.5596 -8.46084
ltoes -22.9183
1977
root -0.846479 16.9172 -2.27635 367.176 -66.9662 3.49831
lowerback 17.5447 -3.10828 0.242132
upperback 9.68295 -4.58525 7.4725
thorax 1.26752 -2.80804 8.61558
lowerneck -6.8235 -4.75306 -11.5667
upperneck 35.0814 -7.9872 5.2917
head 13.709 -4.686 2.97751
rclavicle 1.43125e-014 -3.18055e-014
rhumerus -39.7865 6.50606 -84.476
rradius 41.7101
rwrist 36.9895
rhand -65.0286 29.7572
rfingers 7.12502
rthumb -36.9247 3.67331
lclavicle 1.43125e-014 -3.18055e-014
lhumerus -40.9274 -27.4365 109.148
lradius 38.3829
lwrist -5.62994
lhand -24.0715 17.8808
lfingers 7.12502
lthumb 2.40829 47.8469
rfemur -52.4116 -10.6443 21.0104
rtibia 55.9581
rfoot 4.81381 1.5563
rtoes 24.9718
lfemur -55.2679 2.90024 -10.3179
ltibia 64.1962
lfoot 24.9371 -8.51027
ltoes -22.5137
1978
root -0.807524 16.8695 -2.30695 366.945 -66.9052 3.18905
lowerback 17.484 -3.07817 0.313809
upperback 9.8278 -4.55698 7.39632
thorax 1.43872 -2.79783 8.47368
lowerneck -6.94309 -4.69623 -11.4652
upperneck 35.1713 -7.83905 5.08449
head 13.7441 -4.63296 2.89556
rclavicle -5.56597e-014 -3.65764e-014
rhumerus -40.061 7.12598 -85.1054
rradius 42.3426
rwrist 35.8353
rhand -65.3418 29.7624
rfingers 7.12502
rthumb -37.2209 3.75535
lclavicle -5.56597e-014 -3.65764e-014
lhumerus -41.2587 -27.641 109.722
lradius 38.5354
lwrist -4.63131
lhand -24.0108 16.9681
lfingers 7.12502
lthumb 2.46694 46.9336
rfemur -52.5937 -10.6658 21.116
rtibia 56.8299
rfoot 5.18081 1.57145
rtoes 23.7985
lfemur -55.2953 3.21686 -10.2593
ltibia 64.6758
lfoot 25.4339 -8.52448
ltoes -21.8299
1979
root -0.770495 16.8238 -2.33594 366.906 -66.8967 2.68338
lowerback 17.3611 -2.99345 0.531372
upperback 9.95379 -4.43664 7.32929
thorax 1.59713 -2.73264 8.23975
lowerneck -7.04532 -4.64421 -11.0743
upperneck 35.2899 -7.68769 4.6596
head 13.7622 -4.56771 2.67672
rclavicle 2.46493e-014 -3.65764e-014
rhumerus -40.428 7.44273 -85.6792
rradius 42.9894
rwrist 34.8906
rhand -66.0551 28.5531
rfingers 7.12502
rthumb -37.895 2.72542
lclavicle 2.46493e-014 -3.65764e-014
lhumerus -41.6418 -27.8734 110.299
lradius 38.6755
lwrist -3.68799
lhand -24.1953 17.296
lfingers 7.12502
lthumb 2.28879 47.2635
rfemur -52.7352 -10.5177 21.2477
rtibia 57.6307
rfoot 5.5014 1.56599
rtoes 22.6082
lfemur -55.3437 3.60752 -10.1364
ltibia 65.1298
lfoot 26.0212 -8.20559
ltoes -19.6622
1980
root -0.734348 16.7846 -2.36708 365.49 -66.8426 3.6343
lowerback 17.282 -2.94704 0.125178
upperback 10.014 -4.433 7.06091
thorax 1.70632 -2.73845 8.16734
lowerneck -7.01687 -4.55174 -10.8326
upperneck 35.4577 -7.58673 4.54301
head 13.8016 -4.5152 2.60432
rclavicle -2.38542e-014 0
rhumerus -40.9068 7.4762 -86.1838
rradius 43.5565
rwrist 34.4629
rhand -66.4986 28.2438
rfingers 7.12502
rthumb -38.3138 2.53065
lclavicle -2.38542e-014 0
lhumerus -42.0994 -27.8855 110.672
lradius 38.8924
lwrist -2.38413
lhand -25.3184 18.9302
lfingers 7.12502
lthumb 1.20404 48.9065
rfemur -52.8411 -10.4794 20.671
rtibia 58.4799
rfoot 5.7758 1.48941
rtoes 22.2813
lfemur -55.2376 3.74137 -10.6062
ltibia 65.4944
lfoot 26.4633 -7.5451
ltoes -16.7767
